<svg width="354" height="255" viewBox="0 0 354 255" fill="none" xmlns="http://www.w3.org/2000/svg">
<path d="M48.75 224H0.125V213.781H5.21875V208.656H10.3438V203.531H15.4688V198.406H20.5938V193.281H25.7188V188.188H30.8438V183.062H35.9375V177.938H41.0625V172.812H10.3438V177.938H5.21875V183.062H0.125V172.812H5.21875V162.562H10.3438V167.688H51.3125V177.938H46.1875V183.062H41.0625V188.188H35.9375V193.281H30.8438V198.406H25.7188V203.531H20.5938V208.656H15.4688V213.781H10.3438V218.906H43.625V213.781H48.75V208.656H53.875V218.906H48.75V224ZM94.8125 224H76.9062V218.906H71.7812V213.781H66.6562V172.812H61.5625V167.688H76.9062V213.781H82.0312V218.906H94.8125V224ZM120.438 224H105.062V213.781H99.9375V208.656H105.062V172.812H99.9375V167.688H115.312V218.906H120.438V224ZM99.9375 218.906H94.8125V213.781H99.9375V218.906ZM146.031 254.719H125.562V249.594H130.656V177.938H125.562V172.812H130.656V167.688H135.781V162.562H140.906V172.812H146.031V177.938H140.906V213.781H146.031V218.906H140.906V249.594H146.031V254.719ZM166.5 224H146.031V218.906H161.375V213.781H166.5V203.531H171.625V188.188H166.5V177.938H161.375V172.812H146.031V167.688H166.5V172.812H171.625V177.938H176.75V188.188H181.875V203.531H176.75V213.781H171.625V218.906H166.5V224ZM233.062 224H207.469V218.906H202.344V213.781H197.219V203.531H192.125V188.188H197.219V177.938H202.344V183.062H233.062V177.938H227.938V172.812H207.469V167.688H233.062V172.812H238.188V177.938H243.312V188.188H202.344V203.531H207.469V213.781H212.594V218.906H233.062V224ZM207.469 177.938H202.344V172.812H207.469V177.938ZM243.312 213.781H238.188V208.656H243.312V213.781ZM238.188 218.906H233.062V213.781H238.188V218.906ZM294.562 224H268.969V218.906H263.844V213.781H258.719V203.531H253.625V188.188H258.719V177.938H263.844V183.062H294.562V177.938H289.438V172.812H268.969V167.688H294.562V172.812H299.688V177.938H304.812V188.188H263.844V203.531H268.969V213.781H274.094V218.906H294.562V224ZM268.969 177.938H263.844V172.812H268.969V177.938ZM304.812 213.781H299.688V208.656H304.812V213.781ZM299.688 218.906H294.562V213.781H299.688V218.906ZM332.969 224H312.5V218.906H317.594V177.938H312.5V172.812H317.594V167.688H322.719V162.562H327.844V172.812H332.969V177.938H327.844V218.906H332.969V224ZM353.438 177.938H343.219V172.812H332.969V167.688H353.438V177.938Z" fill="white"/>
<path d="M45 130.1H175V0.0999991H45V130.1ZM175 130.1H305V0.0999991H175V130.1Z" fill="white"/>
</svg>